<?xml version="1.0" encoding="UTF-8"?>
<svg id="Layer_1" data-name="Layer 1" xmlns="http://www.w3.org/2000/svg" viewBox="0 0 888.44 304.66">
  <defs>
    <style>
      .cls-1 {
        fill: #1c1c1c;
      }

      .cls-2 {
        fill: #1cae81;
      }

      .cls-3 {
        fill: #fff;
      }
    </style>
  </defs>
  <g>
    <path class="cls-2" d="M871.38,37.2v18.33c-30.23,24.63-116.64,95.05-134.17,109.33-19.43-14.88-84.29-64.53-90.1-68.98v-58.68s43.53-18.22,112.14-18.22,112.14,18.22,112.14,18.22Z"/>
    <path class="cls-2" d="M737.22,217.33c1.87-1.92,91.88-93.41,134.16-136.4v31.16c0,134.19-112.14,159.75-112.14,159.75,0,0-107.62-24.54-112-151.7,26.25,28.37,86.63,93.55,89.97,97.19Z"/>
    <path class="cls-3" d="M737.22,217.33s0,0,0,0c-.04.04-.04.04,0,0Z"/>
  </g>
  <g>
    <path class="cls-2" d="M31.12,124.43v-21.43h25.87v21.43h-25.87Z"/>
    <path class="cls-2" d="M48.87,124.43v-21.43h25.87v21.43h-25.87Z"/>
    <path class="cls-2" d="M121.57,103h14.85v21.43h-16.99c-7.14,0-13.06-1.73-17.75-5.2-4.9,3.47-10.87,5.2-17.91,5.2h-17.14v-21.43h15c3.26,0,5.56-.66,6.89-1.99,1.32-1.32,1.99-3.62,1.99-6.89v-26.78l22.19-11.78v38.57c0,3.27.64,5.56,1.91,6.89,1.27,1.33,3.6,1.99,6.96,1.99ZM80.09,137.59c3.37,0,6.1,1.04,8.19,3.14,2.09,2.09,3.14,4.82,3.14,8.19s-1.05,6.25-3.14,8.34c-2.09,2.09-4.82,3.14-8.19,3.14s-6.25-1.07-8.34-3.21c-2.09-2.14-3.14-4.9-3.14-8.26s1.05-6.1,3.14-8.19c2.09-2.09,4.87-3.14,8.34-3.14ZM105.65,137.59c3.37,0,6.07,1.02,8.11,3.06,2.04,2.04,3.06,4.79,3.06,8.27s-1.02,6.25-3.06,8.34c-2.04,2.09-4.74,3.14-8.11,3.14s-6.25-1.07-8.34-3.21c-2.09-2.14-3.14-4.9-3.14-8.26s1.04-6.1,3.14-8.19c2.09-2.09,4.87-3.14,8.34-3.14Z"/>
    <path class="cls-2" d="M128.3,124.43v-21.43h25.87v21.43h-25.87Z"/>
    <path class="cls-2" d="M146.06,124.43v-21.43h25.87v21.43h-25.87Z"/>
    <path class="cls-2" d="M163.81,124.43v-21.43h15c3.26,0,5.56-.66,6.89-1.99,1.32-1.32,1.99-3.62,1.99-6.89v-26.78l22.19-11.78v39.49c0,9.49-2.96,16.94-8.88,22.35-5.2,4.69-11.89,7.04-20.05,7.04h-17.14ZM199.62,41.78c-3.47,0-6.25-1.04-8.34-3.14-2.09-2.09-3.14-4.87-3.14-8.34s1.04-6.22,3.14-8.26c2.09-2.04,4.87-3.06,8.34-3.06s6.07,1.02,8.11,3.06c2.04,2.04,3.06,4.8,3.06,8.26s-1.02,6.25-3.06,8.34c-2.04,2.09-4.74,3.14-8.11,3.14Z"/>
    <path class="cls-2" d="M266.35,124.43c-9.39,0-16.73-3.01-22.04-9.03-4.59-5.3-6.89-12.09-6.89-20.36v-57.55l22.19-11.79v68.41c0,3.27.66,5.56,1.99,6.89,1.32,1.33,3.62,1.99,6.89,1.99h15v21.43h-17.14Z"/>
    <path class="cls-2" d="M275.23,124.43v-21.43h25.87v21.43h-25.87Z"/>
    <path class="cls-2" d="M292.98,124.43v-21.43h25.87v21.43h-25.87Z"/>
    <path class="cls-2" d="M406.85,103h15v21.43h-16.99c-6.94,0-12.7-1.63-17.29-4.9-5.31,5.3-12.4,7.96-21.27,7.96s-15.82-2.6-21.12-7.81c-4.8,3.16-10.56,4.74-17.29,4.74h-17.14v-21.43h15c3.26,0,5.56-.66,6.89-1.99,1.32-1.32,1.99-3.62,1.99-6.89v-4.29c0-12.14,3.16-21.53,9.49-28.16,5.61-5.92,13.01-8.88,22.19-8.88,10.51,0,18.62,3.83,24.33,11.48,4.9,6.53,7.4,15.05,7.5,25.56v4.29c0,3.37.64,5.69,1.91,6.96,1.27,1.28,3.54,1.91,6.81,1.91ZM366.3,106.06c6.43,0,9.64-5.56,9.64-16.68,0-10.51-3.21-15.76-9.64-15.76s-9.49,5.26-9.49,15.76c0,11.12,3.16,16.68,9.49,16.68Z"/>
    <path class="cls-2" d="M413.74,124.43v-21.43h25.87v21.43h-25.87Z"/>
    <path class="cls-2" d="M431.49,124.43v-21.43h25.87v21.43h-25.87Z"/>
    <path class="cls-2" d="M502.2,103c5-14.49,12.19-26.27,21.58-35.35,10.41-9.9,22.24-14.85,35.51-14.85,12.34,0,22.19,4.29,29.54,12.86,6.22,7.14,9.34,15.97,9.34,26.48v3.06c0,9.49-2.96,16.89-8.88,22.19-5.2,4.69-11.89,7.04-20.05,7.04h-67.19c-7.14,0-13.06-1.73-17.75-5.2-4.9,3.47-10.87,5.2-17.91,5.2h-17.14v-21.43h15c3.26,0,5.56-.66,6.89-1.99,1.33-1.32,1.99-3.62,1.99-6.89v-19.59l22.19-11.78v31.38c0,5.51,2.3,8.47,6.89,8.88ZM575.97,93.97v-1.84c0-5.51-1.53-9.97-4.59-13.39-3.06-3.42-7.04-5.13-11.94-5.13-7.04,0-13.7,2.63-19.97,7.88-6.27,5.26-11.3,12.42-15.08,21.5h44.08c3.06,0,5.07-.56,6.05-1.68.97-1.12,1.45-3.57,1.45-7.35ZM562.66,41.78c-3.47,0-6.25-1.04-8.34-3.14-2.09-2.09-3.14-4.87-3.14-8.34s1.05-6.22,3.14-8.26c2.09-2.04,4.87-3.06,8.34-3.06s6.07,1.02,8.11,3.06c2.04,2.04,3.06,4.8,3.06,8.26s-1.02,6.25-3.06,8.34c-2.04,2.09-4.74,3.14-8.11,3.14Z"/>
  </g>
  <g>
    <path class="cls-1" d="M30.93,173.27c5-1.33,13.82-1.99,26.48-1.99,17.45,0,30.76,5.1,39.95,15.3,7.86,8.67,11.79,20,11.79,33.98,0,17.45-5,30.56-15,39.33-9.08,7.96-21.73,11.94-37.96,11.94-10.2,0-18.62-.67-25.25-1.99v-96.57ZM50.98,255.31c2.04.51,4.59.76,7.65.76,19.69,0,29.54-11.63,29.54-34.89,0-11.53-3.27-20.36-9.8-26.48-5.31-4.9-12.04-7.35-20.2-7.35-2.35,0-4.74.26-7.19.77v67.19Z"/>
    <path class="cls-1" d="M124.75,181.84l19.28-10.56v37.5c1.63-3.16,5-5.87,10.1-8.11,3.37-1.43,6.53-2.14,9.49-2.14,8.88,0,15.33,2.42,19.36,7.27,4.03,4.85,6.05,12.63,6.05,23.34v40.86h-19.28v-40.1c0-10-4.29-15-12.86-15-6.23,0-10.51,1.74-12.86,5.2v49.89h-19.28v-88.16Z"/>
    <path class="cls-1" d="M264.18,270h-15.46l-1.53-6.58c-6.73,5.61-13.57,8.42-20.51,8.42-15.41,0-23.11-7.5-23.11-22.5,0-7.45,3.21-13.26,9.64-17.45,6.53-4.29,16.17-6.43,28.93-6.43h3.21v-.31c0-4.39-.92-7.4-2.75-9.03-1.84-1.63-5.15-2.45-9.95-2.45-6.73,0-12.91,2.14-18.52,6.43-1.84-3.37-3.57-6.68-5.2-9.95,5.82-4.49,10.89-7.52,15.23-9.11,4.34-1.58,9.51-2.37,15.53-2.37,16.32,0,24.49,10.2,24.49,30.61v40.71ZM244.74,237.25h-2.3c-5.82,0-10.51,1.02-14.08,3.06-3.57,2.04-5.36,4.74-5.36,8.11,0,6.33,2.75,9.49,8.26,9.49,3.37,0,6.33-.97,8.88-2.91,2.55-1.94,4.08-4.39,4.59-7.35v-10.41Z"/>
    <path class="cls-1" d="M302.59,207.25c5.71-5.71,12.86-8.57,21.43-8.57,5.92,0,11.15,1.25,15.69,3.75,4.54,2.5,7.68,5.84,9.41,10.02,2.24-4.08,5.74-7.4,10.48-9.95,4.74-2.55,9.92-3.83,15.53-3.83,16.32,0,24.49,9.9,24.49,29.69v41.63h-19.44v-36.43c0-6.83-.99-11.66-2.98-14.46-1.99-2.81-5.33-4.21-10.02-4.21-6.73,0-12.19,2.65-16.38,7.96v47.14h-19.28v-38.57c0-6.02-1.07-10.28-3.21-12.78-2.14-2.5-5.82-3.75-11.02-3.75-3.06,0-5.95.46-8.65,1.38-2.7.92-4.46,2.04-5.28,3.37v50.35h-19.28v-69.48h16.38l1.38,6.73h.77Z"/>
    <path class="cls-1" d="M474.77,270h-15.46l-1.53-6.58c-6.73,5.61-13.57,8.42-20.51,8.42-15.41,0-23.11-7.5-23.11-22.5,0-7.45,3.21-13.26,9.64-17.45,6.53-4.29,16.17-6.43,28.93-6.43h3.21v-.31c0-4.39-.92-7.4-2.75-9.03-1.84-1.63-5.15-2.45-9.95-2.45-6.73,0-12.91,2.14-18.52,6.43-1.84-3.37-3.57-6.68-5.2-9.95,5.82-4.49,10.89-7.52,15.23-9.11,4.34-1.58,9.51-2.37,15.53-2.37,16.32,0,24.49,10.2,24.49,30.61v40.71ZM455.33,237.25h-2.3c-5.82,0-10.51,1.02-14.08,3.06-3.57,2.04-5.36,4.74-5.36,8.11,0,6.33,2.75,9.49,8.26,9.49,3.37,0,6.32-.97,8.88-2.91,2.55-1.94,4.08-4.39,4.59-7.35v-10.41Z"/>
    <path class="cls-1" d="M513.34,207.25c2.04-2.35,5.1-4.36,9.18-6.05,4.08-1.68,7.96-2.53,11.63-2.53,8.78,0,15.13,2.4,19.05,7.19,3.93,4.8,5.89,12.55,5.89,23.26v40.86h-19.44v-40.1c0-10-4.44-15-13.31-15-2.25,0-4.64.49-7.19,1.45-2.55.97-4.29,2.07-5.2,3.29v50.35h-19.28v-69.48h16.38c.51,2.65,1.02,4.9,1.53,6.73h.77Z"/>
    <path class="cls-1" d="M575.17,182.76c0-3.26,1.15-6.1,3.44-8.49,2.3-2.4,5.02-3.6,8.19-3.6,3.37,0,6.25,1.17,8.65,3.52,2.4,2.35,3.6,5.2,3.6,8.57,0,3.57-1.15,6.48-3.44,8.72-2.3,2.25-5.23,3.37-8.8,3.37-3.37,0-6.15-1.15-8.34-3.44-2.2-2.3-3.29-5.18-3.29-8.65ZM596.91,200.52v69.48h-19.44v-69.48h19.44Z"/>
  </g>
</svg>