<?xml version="1.0" encoding="UTF-8"?>
<svg id="Layer_1" data-name="Layer 1" xmlns="http://www.w3.org/2000/svg" viewBox="0 0 664.4 888.3">
  <defs>
    <style>
      .cls-1 {
        fill: #1c1c1c;
      }

      .cls-2 {
        fill: #1cae81;
      }

      .cls-3 {
        fill: #fff;
      }
    </style>
  </defs>
  <g>
    <path class="cls-2" d="M560.95,73.62v37.39c-61.66,50.24-237.94,193.89-273.7,223.02-39.64-30.35-171.93-131.64-183.79-140.72v-119.69s88.79-37.18,228.75-37.18,228.75,37.18,228.75,37.18Z"/>
    <path class="cls-2" d="M287.27,441.06c3.82-3.92,187.42-190.54,273.68-278.25v63.56c0,273.73-228.75,325.88-228.75,325.88,0,0-219.54-50.06-228.47-309.47,53.56,57.86,176.72,190.84,183.54,198.27Z"/>
    <path class="cls-3" d="M287.27,441.06s0,0,0,0c-.08.08-.08.09,0,0Z"/>
  </g>
  <g>
    <g>
      <path class="cls-2" d="M40.98,712.42v-22.12h26.7v22.12h-26.7Z"/>
      <path class="cls-2" d="M59.3,712.42v-22.12h26.7v22.12h-26.7Z"/>
      <path class="cls-2" d="M134.35,690.3h15.32v22.12h-17.54c-7.37,0-13.48-1.79-18.33-5.37-5.06,3.58-11.22,5.37-18.48,5.37h-17.69v-22.12h15.48c3.37,0,5.74-.68,7.11-2.05s2.05-3.74,2.05-7.11v-27.65l22.91-12.16v39.81c0,3.37.66,5.74,1.97,7.11,1.32,1.37,3.71,2.05,7.19,2.05ZM91.53,726.01c3.48,0,6.29,1.08,8.45,3.24s3.24,4.98,3.24,8.45-1.08,6.45-3.24,8.61c-2.16,2.16-4.98,3.24-8.45,3.24s-6.45-1.11-8.61-3.32c-2.16-2.21-3.24-5.06-3.24-8.53s1.08-6.29,3.24-8.45c2.16-2.16,5.03-3.24,8.61-3.24ZM117.91,726.01c3.48,0,6.27,1.05,8.37,3.16,2.11,2.11,3.16,4.95,3.16,8.53s-1.05,6.45-3.16,8.61c-2.11,2.16-4.9,3.24-8.37,3.24s-6.45-1.11-8.61-3.32c-2.16-2.21-3.24-5.06-3.24-8.53s1.08-6.29,3.24-8.45c2.16-2.16,5.03-3.24,8.61-3.24Z"/>
      <path class="cls-2" d="M141.3,712.42v-22.12h26.7v22.12h-26.7Z"/>
      <path class="cls-2" d="M159.62,712.42v-22.12h26.7v22.12h-26.7Z"/>
      <path class="cls-2" d="M177.95,712.42v-22.12h15.48c3.37,0,5.74-.68,7.11-2.05s2.05-3.74,2.05-7.11v-27.65l22.91-12.16v40.76c0,9.79-3.06,17.48-9.16,23.07-5.37,4.85-12.27,7.27-20.7,7.27h-17.69ZM214.92,627.11c-3.58,0-6.45-1.08-8.61-3.24-2.16-2.16-3.24-5.03-3.24-8.61s1.08-6.42,3.24-8.53c2.16-2.11,5.03-3.16,8.61-3.16s6.26,1.05,8.37,3.16c2.11,2.11,3.16,4.95,3.16,8.53s-1.05,6.45-3.16,8.61c-2.11,2.16-4.9,3.24-8.37,3.24Z"/>
      <path class="cls-2" d="M283.8,712.42c-9.69,0-17.27-3.11-22.75-9.32-4.74-5.48-7.11-12.48-7.11-21.01v-59.4l22.91-12.16v70.62c0,3.37.68,5.74,2.05,7.11,1.37,1.37,3.74,2.05,7.11,2.05h15.48v22.12h-17.69Z"/>
      <path class="cls-2" d="M292.96,712.42v-22.12h26.7v22.12h-26.7Z"/>
      <path class="cls-2" d="M311.28,712.42v-22.12h26.7v22.12h-26.7Z"/>
      <path class="cls-2" d="M428.82,690.3h15.48v22.12h-17.54c-7.16,0-13.11-1.68-17.85-5.06-5.48,5.47-12.8,8.21-21.96,8.21s-16.33-2.69-21.8-8.06c-4.95,3.27-10.9,4.9-17.85,4.9h-17.69v-22.12h15.48c3.37,0,5.74-.68,7.11-2.05s2.05-3.74,2.05-7.11v-4.42c0-12.53,3.26-22.22,9.79-29.07,5.79-6.11,13.43-9.16,22.91-9.16,10.85,0,19.22,3.95,25.12,11.85,5.05,6.74,7.63,15.54,7.74,26.38v4.42c0,3.48.66,5.87,1.97,7.19,1.32,1.32,3.66,1.98,7.03,1.98ZM386.96,693.46c6.63,0,9.95-5.74,9.95-17.22,0-10.85-3.32-16.27-9.95-16.27s-9.79,5.43-9.79,16.27c0,11.48,3.26,17.22,9.79,17.22Z"/>
      <path class="cls-2" d="M435.93,712.42v-22.12h26.7v22.12h-26.7Z"/>
      <path class="cls-2" d="M454.26,712.42v-22.12h26.7v22.12h-26.7Z"/>
      <path class="cls-2" d="M527.25,690.3c5.16-14.95,12.58-27.12,22.28-36.49,10.74-10.21,22.96-15.32,36.65-15.32,12.74,0,22.91,4.42,30.49,13.27,6.42,7.37,9.64,16.48,9.64,27.33v3.16c0,9.79-3.06,17.43-9.16,22.91-5.37,4.85-12.27,7.27-20.7,7.27h-69.35c-7.37,0-13.48-1.79-18.33-5.37-5.06,3.58-11.22,5.37-18.48,5.37h-17.69v-22.12h15.48c3.37,0,5.74-.68,7.11-2.05s2.05-3.74,2.05-7.11v-20.22l22.91-12.16v32.39c0,5.69,2.37,8.74,7.11,9.16ZM603.39,680.98v-1.9c0-5.69-1.58-10.29-4.74-13.82-3.16-3.53-7.27-5.29-12.32-5.29-7.27,0-14.14,2.71-20.62,8.14-6.48,5.43-11.67,12.82-15.56,22.2h45.5c3.16,0,5.24-.58,6.24-1.74,1-1.16,1.5-3.69,1.5-7.58ZM589.65,627.11c-3.58,0-6.45-1.08-8.61-3.24-2.16-2.16-3.24-5.03-3.24-8.61s1.08-6.42,3.24-8.53c2.16-2.11,5.03-3.16,8.61-3.16s6.26,1.05,8.37,3.16c2.11,2.11,3.16,4.95,3.16,8.53s-1.05,6.45-3.16,8.61c-2.11,2.16-4.9,3.24-8.37,3.24Z"/>
    </g>
    <g>
      <path class="cls-1" d="M40.78,762.84c5.16-1.37,14.27-2.05,27.33-2.05,18.01,0,31.75,5.27,41.23,15.8,8.11,8.95,12.17,20.64,12.17,35.07,0,18.01-5.16,31.54-15.48,40.6-9.38,8.21-22.43,12.32-39.18,12.32-10.53,0-19.22-.69-26.07-2.05v-99.69ZM61.48,847.52c2.11.53,4.74.79,7.9.79,20.33,0,30.49-12.01,30.49-36.02,0-11.9-3.37-21.01-10.11-27.33-5.48-5.05-12.43-7.58-20.85-7.58-2.42,0-4.9.26-7.42.79v69.35Z"/>
      <path class="cls-1" d="M137.63,771.69l19.91-10.9v38.71c1.68-3.26,5.16-6.06,10.43-8.37,3.48-1.47,6.74-2.21,9.79-2.21,9.16,0,15.82,2.5,19.98,7.5,4.16,5,6.24,13.03,6.24,24.09v42.18h-19.91v-41.39c0-10.32-4.42-15.48-13.27-15.48-6.43,0-10.85,1.79-13.27,5.37v51.5h-19.91v-91Z"/>
      <path class="cls-1" d="M281.55,862.69h-15.96l-1.58-6.79c-6.95,5.79-14.01,8.69-21.17,8.69-15.9,0-23.86-7.74-23.86-23.22,0-7.69,3.32-13.69,9.95-18.01,6.74-4.42,16.69-6.64,29.86-6.64h3.32v-.32c0-4.53-.95-7.63-2.84-9.32-1.9-1.68-5.32-2.53-10.27-2.53-6.95,0-13.32,2.21-19.12,6.63-1.9-3.48-3.69-6.9-5.37-10.27,6-4.63,11.24-7.77,15.72-9.4,4.48-1.63,9.82-2.45,16.04-2.45,16.85,0,25.28,10.53,25.28,31.6v42.02ZM261.48,828.88h-2.37c-6,0-10.85,1.05-14.53,3.16-3.69,2.11-5.53,4.9-5.53,8.37,0,6.53,2.84,9.79,8.53,9.79,3.48,0,6.53-1,9.16-3,2.63-2,4.21-4.53,4.74-7.58v-10.74Z"/>
      <path class="cls-1" d="M321.2,797.91c5.9-5.9,13.27-8.85,22.12-8.85,6.11,0,11.51,1.29,16.19,3.87,4.69,2.58,7.92,6.03,9.72,10.35,2.32-4.21,5.92-7.63,10.82-10.27,4.9-2.63,10.24-3.95,16.04-3.95,16.85,0,25.28,10.22,25.28,30.65v42.97h-20.06v-37.6c0-7.05-1.03-12.03-3.08-14.93-2.05-2.9-5.5-4.34-10.35-4.34-6.95,0-12.59,2.74-16.9,8.21v48.66h-19.91v-39.81c0-6.21-1.11-10.61-3.32-13.19-2.21-2.58-6-3.87-11.38-3.87-3.16,0-6.14.47-8.93,1.42-2.79.95-4.61,2.11-5.45,3.48v51.98h-19.91v-71.72h16.9l1.42,6.95h.79Z"/>
      <path class="cls-1" d="M498.93,862.69h-15.96l-1.58-6.79c-6.95,5.79-14.01,8.69-21.17,8.69-15.9,0-23.86-7.74-23.86-23.22,0-7.69,3.32-13.69,9.95-18.01,6.74-4.42,16.69-6.64,29.86-6.64h3.32v-.32c0-4.53-.95-7.63-2.84-9.32-1.9-1.68-5.32-2.53-10.27-2.53-6.95,0-13.32,2.21-19.12,6.63-1.9-3.48-3.69-6.9-5.37-10.27,6-4.63,11.24-7.77,15.72-9.4,4.48-1.63,9.82-2.45,16.04-2.45,16.85,0,25.28,10.53,25.28,31.6v42.02ZM478.87,828.88h-2.37c-6,0-10.85,1.05-14.53,3.16-3.69,2.11-5.53,4.9-5.53,8.37,0,6.53,2.84,9.79,8.53,9.79,3.48,0,6.53-1,9.16-3,2.63-2,4.21-4.53,4.74-7.58v-10.74Z"/>
      <path class="cls-1" d="M538.74,797.91c2.11-2.42,5.26-4.5,9.48-6.24,4.21-1.74,8.21-2.61,12.01-2.61,9.06,0,15.61,2.48,19.67,7.42,4.05,4.95,6.08,12.95,6.08,24.01v42.18h-20.06v-41.39c0-10.32-4.58-15.48-13.74-15.48-2.32,0-4.79.5-7.43,1.5-2.63,1-4.42,2.13-5.37,3.4v51.98h-19.91v-71.72h16.9c.53,2.74,1.05,5.06,1.58,6.95h.79Z"/>
      <path class="cls-1" d="M602.57,772.64c0-3.37,1.18-6.29,3.55-8.77,2.37-2.47,5.19-3.71,8.45-3.71,3.48,0,6.45,1.21,8.93,3.63,2.47,2.42,3.71,5.37,3.71,8.85,0,3.69-1.19,6.69-3.55,9-2.37,2.32-5.4,3.48-9.08,3.48-3.48,0-6.35-1.18-8.61-3.55-2.27-2.37-3.4-5.34-3.4-8.93ZM625,790.96v71.72h-20.06v-71.72h20.06Z"/>
    </g>
  </g>
</svg>